<?xml version="1.0" encoding="UTF-8"?>
<svg width="53px" height="53px" viewBox="0 0 53 53" version="1.1" xmlns="http://www.w3.org/2000/svg" xmlns:xlink="http://www.w3.org/1999/xlink">
    <!-- Generator: Sketch 58 (84663) - https://sketch.com -->
    <title>Group 13</title>
    <desc>Created with Sketch.</desc>
    <defs>
        <polygon id="path-1" points="1.84285417 1.07855 7.3901875 1.07855 7.3901875 6.625 1.84285417 6.625"></polygon>
        <polygon id="path-3" points="0 0.695625 19.6022708 0.695625 19.6022708 20.4220042 0 20.4220042"></polygon>
        <polygon id="path-5" points="1.45904583 1.07855 7.00637917 1.07855 7.00637917 6.625 1.45904583 6.625"></polygon>
    </defs>
    <g id="Page-1" stroke="none" stroke-width="1" fill="none" fill-rule="evenodd">
        <g id="Group-13">
            <g id="delivery-listing-person" fill-rule="nonzero">
                <path d="M46.5998,52.6998 L6.6998,52.6998 C3.3868,52.6998 0.6998,50.0128 0.6998,46.6998 L0.6998,6.7998 C0.6998,3.4868 3.3868,0.7998 6.6998,0.7998 L46.5998,0.7998 C49.9128,0.7998 52.5998,3.4868 52.5998,6.7998 L52.5998,46.6998 C52.5998,50.0128 49.9128,52.6998 46.5998,52.6998" id="Fill-1" fill-opacity="0.5" fill="#000000"></path>
                <path d="M6.0002,0.0001 C2.6862,0.0001 0.0002,2.6861 0.0002,6.0001 L0.0002,45.9001 C0.0002,49.2131 2.6862,51.9001 6.0002,51.9001 L45.8992,51.9001 C49.2142,51.9001 51.8992,49.2131 51.8992,45.9001 L51.8992,6.0001 C51.8992,2.6861 49.2142,0.0001 45.8992,0.0001 L6.0002,0.0001 Z M50.0002,26.5991 L50.0002,44.0001 C50.0002,47.3141 47.3132,50.0001 44.0002,50.0001 L7.9002,50.0001 C4.5862,50.0001 1.9002,47.3141 1.9002,44.0001 L1.9002,7.9001 C1.9002,4.5861 4.5862,1.9001 7.9002,1.9001 L44.0002,1.9001 C47.3132,1.9001 50.0002,4.5861 50.0002,7.9001 L50.0002,26.5991 Z" id="Fill-9" fill="#FEFEFE"></path>
            </g>
            <g id="Group-12-Copy" transform="translate(9.000000, 13.000000)">
                <g id="Group-3" transform="translate(2.208333, 19.179596)">
                    <mask id="mask-2" fill="white">
                        <use xlink:href="#path-1"></use>
                    </mask>
                    <g id="Clip-2"></g>
                    <path d="M7.3901875,3.85221667 C7.3901875,5.38259167 6.14910417,6.62588333 4.61652083,6.62588333 C3.08614583,6.62588333 1.84285417,5.38259167 1.84285417,3.85221667 C1.84285417,2.32184167 3.08614583,1.07855 4.61652083,1.07855 C6.14910417,1.07855 7.3901875,2.32184167 7.3901875,3.85221667" id="Fill-1" fill="#FFFFFF" mask="url(#mask-2)"></path>
                </g>
                <g id="Group-6" transform="translate(0.000000, 1.512929)">
                    <mask id="mask-4" fill="white">
                        <use xlink:href="#path-3"></use>
                    </mask>
                    <g id="Clip-5"></g>
                    <path d="M18.1536042,0.6949625 L1.44977083,0.6949625 C0.6989375,0.6949625 -0.00110416667,1.52750417 -0.00110416667,2.28275417 L-0.00110416667,3.37587917 L9.44172917,3.37587917 C10.0401875,3.37587917 10.5260208,3.92354583 10.5260208,4.52642083 C10.5260208,5.13150417 10.0401875,5.68137917 9.44172917,5.68137917 L-0.00110416667,5.68137917 L-0.00110416667,8.40867083 L5.5351875,8.40867083 C6.13585417,8.40867083 6.61947917,8.95854583 6.61947917,9.56362917 C6.61947917,10.1665042 6.13585417,10.7163792 5.5351875,10.7163792 L-0.00110416667,10.7163792 L-0.00110416667,13.4436708 L1.62864583,13.4436708 C2.2293125,13.4436708 2.71514583,13.9935458 2.71514583,14.5986292 C2.71514583,15.1992958 2.2293125,15.7491708 1.62864583,15.7491708 L-0.00110416667,15.7491708 L-0.00110416667,18.7834208 C-0.00110416667,19.5386708 0.637104167,20.4220042 1.3879375,20.4220042 L1.94664583,20.4220042 C2.4479375,18.1849625 4.43764583,16.5110458 6.82485417,16.5110458 C9.2120625,16.5110458 11.2039792,18.1849625 11.7030625,20.4220042 L19.6022708,20.4220042 L19.6022708,2.28275417 C19.6022708,1.52750417 18.9044375,0.6949625 18.1536042,0.6949625" id="Fill-4" fill="#FFFFFF" mask="url(#mask-4)"></path>
                </g>
                <path d="M30.916225,7.86674583 C30.6622667,7.48912083 30.240475,7.1689125 29.7877667,7.1689125 L21.9702667,7.1689125 L21.9702667,21.9338292 L23.6463917,21.9338292 C24.1476833,19.6967875 26.1373917,18.0250792 28.5246,18.0250792 C30.9118083,18.0250792 32.9015167,19.6967875 33.4028083,21.9338292 L33.9615167,21.9338292 C34.71235,21.9338292 35.3196417,21.1874125 35.3196417,20.4321625 L35.3328917,14.1295792 L30.916225,7.86674583 Z" id="Fill-7" fill="#FFFFFF"></path>
                <g id="Group-11" transform="translate(24.291667, 19.179596)">
                    <mask id="mask-6" fill="white">
                        <use xlink:href="#path-5"></use>
                    </mask>
                    <g id="Clip-10"></g>
                    <path d="M7.00637917,3.85221667 C7.00637917,5.38259167 5.76529583,6.62588333 4.2327125,6.62588333 C2.7023375,6.62588333 1.45904583,5.38259167 1.45904583,3.85221667 C1.45904583,2.32184167 2.7023375,1.07855 4.2327125,1.07855 C5.76529583,1.07855 7.00637917,2.32184167 7.00637917,3.85221667" id="Fill-9" fill="#FFFFFF" mask="url(#mask-6)"></path>
                </g>
            </g>
        </g>
    </g>
</svg>