<?xml version="1.0" encoding="utf-8"?>
<!-- Generator: Adobe Illustrator 24.2.3, SVG Export Plug-In . SVG Version: 6.00 Build 0)  -->
<svg version="1.1" id="Layer_1" xmlns="http://www.w3.org/2000/svg" xmlns:xlink="http://www.w3.org/1999/xlink" x="0px" y="0px"
	 viewBox="0 0 25 19" style="enable-background:new 0 0 25 19;" xml:space="preserve">
<style type="text/css">
	.st0{fill-opacity:0.5;}
	.st1{fill:#FFFFFF;}
	.st2{fill-rule:evenodd;clip-rule:evenodd;fill:#FFFFFF;}
</style>
<g>
	<g id="delivery-listing-person_1_">
		<path id="Fill-1_5_" class="st0" d="M22.1,19H3.2c-1.6,0-2.8-1.3-2.8-2.8v-13c0-1.6,1.3-2.8,2.8-2.8h18.9c1.6,0,2.8,1.3,2.8,2.8
			v12.9C25,17.7,23.7,19,22.1,19"/>
		<path id="Fill-9_2_" class="st1" d="M2.9,0C1.3,0,0,1.3,0,2.8v12.9c0,1.6,1.3,2.8,2.8,2.8h18.9c1.6,0,2.8-1.3,2.8-2.8V2.8
			c0-1.6-1.3-2.8-2.8-2.8H2.9z M23.7,6.6v8.2c0,1.6-1.3,2.8-2.8,2.8H3.8c-1.6,0-2.8-1.3-2.8-2.8V3.7c0-1.6,1.3-2.8,2.8-2.8h17.1
			c1.6,0,2.8,1.3,2.8,2.8C23.7,3.7,23.7,6.6,23.7,6.6z"/>
	</g>
	<g>
		<path class="st2" d="M14.6,10.1c0.5-0.3,0.5-0.8,0-1.1l-4.3-2.9C9.8,5.7,9.5,6,9.5,6.5v6c0,0.6,0.3,0.7,0.8,0.4L14.6,10.1z"/>
	</g>
</g>
</svg>
